HIERARCHY
ROOT RootJoint
{
    OFFSET   0.000000   0.000000   0.000000
    CHANNELS 6 Xposition Yposition Zposition Xrotation Yrotation Zrotation
    JOINT pelvis_lowerback
    {
        OFFSET   0.000000   0.093605   0.000000
        CHANNELS 3 Xrotation Yrotation Zrotation
        JOINT lowerback_torso
        {
            OFFSET   0.000000   0.100000   0.000000
            CHANNELS 3 Xrotation Yrotation Zrotation
            JOINT torso_head
            {
                OFFSET   0.000000   0.282350   0.000000
                CHANNELS 3 Xrotation Yrotation Zrotation
                End Site
                {
                    OFFSET   0.000000   0.192650   0.000000
                }
            }
            JOINT rTorso_Clavicle
            {
                OFFSET  -0.001000   0.157500   0.000000
                CHANNELS 3 Xrotation Yrotation Zrotation
                JOINT rShoulder
                {
                    OFFSET  -0.117647   0.000000   0.000000
                    CHANNELS 3 Xrotation Yrotation Zrotation
                    JOINT rElbow
                    {
                        OFFSET  -0.245000   0.000000   0.000000
                        CHANNELS 3 Xrotation Yrotation Zrotation
                        JOINT rWrist
                        {
                            OFFSET  -0.240000   0.000000   0.000000
                            CHANNELS 3 Xrotation Yrotation Zrotation
                            End Site
                            {
                                OFFSET  -0.116353  -0.002500   0.000000
                            }
                        }
                    }
                }
            }
            JOINT lTorso_Clavicle
            {
                OFFSET   0.001000   0.157500   0.000000
                CHANNELS 3 Xrotation Yrotation Zrotation
                JOINT lShoulder
                {
                    OFFSET   0.117647   0.000000   0.000000
                    CHANNELS 3 Xrotation Yrotation Zrotation
                    JOINT lElbow
                    {
                        OFFSET   0.245000   0.000000   0.000000
                        CHANNELS 3 Xrotation Yrotation Zrotation
                        JOINT lWrist
                        {
                            OFFSET   0.240000   0.000000   0.000000
                            CHANNELS 3 Xrotation Yrotation Zrotation
                            End Site
                            {
                                OFFSET   0.116353  -0.002500   0.000000
                            }
                        }
                    }
                }
            }
        }
    }
    JOINT rHip
    {
        OFFSET  -0.100000  -0.051395   0.000000
        CHANNELS 3 Xrotation Yrotation Zrotation
        JOINT rKnee
        {
            OFFSET   0.000000  -0.410000   0.000000
            CHANNELS 3 Xrotation Yrotation Zrotation
            JOINT rAnkle
            {
                OFFSET   0.000000  -0.390000   0.000000
                CHANNELS 3 Xrotation Yrotation Zrotation
                JOINT rToeJoint
                {
                    OFFSET   0.000000  -0.050000   0.130000
                    CHANNELS 3 Xrotation Yrotation Zrotation
                    End Site
                    {
                        OFFSET  -0.010000   0.002000   0.060000
                    }
                }
            }
        }
    }
    JOINT lHip
    {
        OFFSET   0.100000  -0.051395   0.000000
        CHANNELS 3 Xrotation Yrotation Zrotation
        JOINT lKnee
        {
            OFFSET   0.000000  -0.410000   0.000000
            CHANNELS 3 Xrotation Yrotation Zrotation
            JOINT lAnkle
            {
                OFFSET   0.000000  -0.390000   0.000000
                CHANNELS 3 Xrotation Yrotation Zrotation
                JOINT lToeJoint
                {
                    OFFSET   0.000000  -0.050000   0.130000
                    CHANNELS 3 Xrotation Yrotation Zrotation
                    End Site
                    {
                        OFFSET   0.010000   0.002000   0.060000
                    }
                }
            }
        }
    }
}
MOTION
Frames: 12
Frame Time:   0.008333
 -2.376719   0.925631   3.975860   0.000000   0.000000   0.000000   0.000000   0.000000   0.000000   0.000000   0.000000   0.000000   0.000000   0.000000   0.000000   0.000000   0.000000   0.000000   0.000000   0.000000   0.000000   0.000000   0.000000   0.000000   0.000000   0.000000   0.000000   0.000000   0.000000   0.000000   0.000000   0.000000   0.000000   0.000000   0.000000   0.000000   0.000000   0.000000   0.000000   0.000000   0.000000   0.000000   0.000000   0.000000   0.000000   0.000000   0.000000   0.000000   0.000000   0.000000   0.000000   0.000000   0.000000   0.000000   0.000000   0.000000   0.000000   0.000000   0.000000   0.000000   0.000000   0.000000   0.000000
 -2.376491   0.926142   3.975804  -0.416777   0.014803   0.068775   0.440514   0.041431  -0.024847   0.252510  -0.146131  -0.034112  -0.140167   0.099560   0.017566   0.209792  -0.294181   0.166255   0.465348   0.120162   2.206624   0.028671   1.371387  -0.011662   0.152527  -0.502463  -2.702278   0.234162   0.270935  -0.277026   0.545779   0.108281  -2.158039   0.026459  -1.244417   0.011697   0.192624   0.350274   2.817124   0.184436  -0.117232  -0.240056   0.821046   0.001221  -0.000744  -0.801660  -0.450706  -0.003641  -0.063946  -0.000098   0.000308   0.238374   0.002903   0.038260   0.677493  -0.000632   0.000111  -0.787665   0.297639   0.170536   0.355649  -0.000856   0.000982
 -2.376215   0.927031   3.975690  -0.880853   0.027115   0.147186   0.897125   0.074883  -0.044262   0.583094  -0.294023  -0.073925  -0.240513   0.193295   0.038236   0.414312  -0.535703   1.023722   0.913405   0.311496   4.964543   0.065912   2.704019  -0.020916   0.339275  -0.591469  -4.698365   0.466269   0.492437  -1.270420   1.082905   0.148754  -4.891417   0.060710  -2.448426   0.021087   0.423207   0.358763   4.911708   0.385553  -0.243134  -0.617112   1.704062   0.003243  -0.001543  -1.549040  -0.879842  -0.015757  -0.154861  -0.000325   0.000676   0.506947   0.013713   0.180588   1.409773  -0.001910   0.000281  -1.524772   0.578615   0.335244   0.645776  -0.001645   0.001570
 -2.375933   0.927901   3.975555  -1.326106   0.034195   0.223896   1.339538   0.102538  -0.060198   0.915295  -0.435793  -0.113050  -0.326588   0.280496   0.060178   0.607743  -0.717474   2.309058   1.339743   0.555476   8.081130   0.102355   3.960750  -0.027276   0.528563  -0.538472  -5.897872   0.686124   0.652228  -2.698252   1.608264   0.126855  -7.996911   0.094242  -3.584687   0.027806   0.655185   0.243774   6.184057   0.568569  -0.366440  -1.090315   2.543253   0.005435  -0.002250  -2.246025  -1.282098  -0.033599  -0.241872  -0.000574   0.000934   0.764614   0.028654   0.421992   2.108553  -0.003456   0.000460  -2.213211   0.840394   0.493255   0.905772  -0.002375   0.001927
 -2.375658   0.928463   3.975438  -1.739658   0.034333   0.296257   1.761621   0.125730  -0.074929   1.231302  -0.570896  -0.150490  -0.405604   0.361828   0.082085   0.790126  -0.851852   3.839783   1.744294   0.844516  11.438890   0.133806   5.140761  -0.031245   0.714218  -0.425528  -6.504421   0.891556   0.762171  -4.369438   2.122477   0.048457 -11.350297   0.123235  -4.653288   0.032334   0.883214   0.069450   6.847498   0.728995  -0.485395  -1.634816   3.324516   0.007480  -0.002864  -2.897397  -1.658603  -0.055885  -0.327768  -0.000829   0.001119   1.005584   0.046526   0.746904   2.761292  -0.005013   0.000630  -2.857099   1.084184   0.644572   1.137597  -0.002986   0.002109
 -2.375433   0.928490   3.975371  -2.120475   0.027910   0.366213   2.160746   0.145486  -0.095979   1.526950  -0.699098  -0.199477  -0.478727   0.437630   0.107038   0.961397  -0.952898   5.500442   2.126331   1.170083  14.962250   0.158553   6.245720  -0.033317   0.892980  -0.287219  -6.700289   1.082346   0.836723  -6.202716   2.602931  -0.074278 -14.734155   0.145548  -5.656022   0.034920   1.104238  -0.137300   7.028404   0.869398  -0.599212  -2.231091   4.049929   0.009210  -0.003383  -3.506431  -2.010793  -0.081639  -0.412352  -0.001069   0.001246   1.231154   0.066283   1.139797   3.369530  -0.006450   0.000788  -3.459376   1.311092   0.789127   1.344617  -0.003463   0.002166
 -2.375287   0.927814   3.975372  -2.470503   0.016503   0.434269   2.535477   0.162483  -0.128765   1.801461  -0.820590  -0.264628  -0.546137   0.508247   0.132802   1.122094  -1.033023   7.210889   2.485182   1.523833  18.597920   0.176315   7.278072  -0.033916   1.062545  -0.144159  -6.624179   1.258833   0.888662  -8.113139   3.043141  -0.227952 -18.036170   0.160752  -6.595038   0.035931   1.315376  -0.358366   6.874919   0.993430  -0.707420  -2.861942   4.724153   0.010561  -0.003799  -4.075859  -2.340017  -0.109982  -0.494427  -0.001276   0.001322   1.443456   0.087148   1.587622   3.936999  -0.007696   0.000935  -4.022615   1.522241   0.926960   1.530251  -0.003807   0.002139
 -2.375242   0.925723   3.974885  -2.503037  -0.059827   0.424424   2.679822   0.202486  -0.057602   2.000475  -0.915231  -0.372775  -0.725120   0.413710   0.125275   1.338296  -0.971301   8.308910   2.937466   1.871498  22.149686   0.187480   8.379700  -0.036682   1.158402  -0.062672  -5.506370   1.532477   0.952095  -9.234882   3.300868  -0.400744 -21.360607   0.169500  -7.600519   0.036508   1.444952  -0.602757   5.714637   0.653145  -1.050029  -3.342912   5.512873   0.011447  -0.006479  -4.391477  -2.744928   0.103439  -0.440495  -0.000889   0.000659   1.363782   0.255127   2.068564   4.044859  -0.006593   0.000883  -4.149797   1.789755   1.040436   1.711509  -0.003943   0.002327
 -2.375233   0.922443   3.974217  -2.503897  -0.123516   0.399485   2.850569   0.237702   0.016977   2.179515  -0.998997  -0.463670  -0.904527   0.317637   0.110506   1.523581  -0.872977   9.163098   3.329625   2.244083  25.354853   0.188745   9.421200  -0.038124   1.260721   0.076036  -4.430366   1.776212   0.988429 -10.072884   3.525262  -0.584855 -24.330421   0.168960  -8.548942   0.036205   1.569231  -0.898155   4.637560   0.289044  -1.384314  -3.750671   6.237944   0.011479  -0.008239  -4.681479  -3.126935   0.300578  -0.366210  -0.000562   0.000003   1.222306   0.414630   2.509959   4.056756  -0.005316   0.000722  -4.269684   2.040548   1.147552   1.897872  -0.003967   0.002481
 -2.375226   0.918096   3.973481  -2.498486  -0.174029   0.369935   3.037904   0.274745   0.091194   2.358378  -1.072285  -0.538445  -1.068996   0.227459   0.094136   1.681821  -0.761777   9.842887   3.667774   2.621382  28.261933   0.183609  10.400410  -0.038418   1.362711   0.245997  -3.553390   1.993061   1.009550 -10.715021   3.720376  -0.769894 -27.002047   0.162603  -9.438357   0.035086   1.688338  -1.205281   3.791972  -0.057273  -1.695033  -4.104660   6.906303   0.011004  -0.009192  -4.951567  -3.484084   0.482835  -0.296656  -0.000335  -0.000453   1.046563   0.561910   2.900770   4.037994  -0.004195   0.000557  -4.383426   2.274161   1.248031   2.067821  -0.003816   0.002530
 -2.375231   0.918226   3.972999  -2.629913   0.056630   0.435272   3.317642   0.213673   0.098855   2.605666  -1.214988  -0.627089  -1.214671   0.139732   0.075823   1.828744  -0.649836  10.731463   3.963167   2.986836  31.031758   0.177448  11.299710  -0.038311   1.455040   0.344708  -2.901159   2.160361   0.965561 -11.524061   3.873208  -0.986175 -29.518020   0.155850 -10.267567   0.033154   1.802280  -1.475373   3.209181  -0.324715  -1.796187  -4.213585   7.703710   0.008982  -0.006827  -5.125723  -3.572137   0.863422  -0.338950  -0.000144  -0.000365   0.842247   0.766556   2.886793   4.470142  -0.003390   0.002194  -3.942374   2.556558   1.191635   2.302954  -0.003013   0.003521
 -2.375253   0.918411   3.972769  -2.691824   0.191601   0.541552   3.505869   0.226583   0.084012   2.808558  -1.306681  -0.722819  -1.342010   0.061119   0.053149   1.974428  -0.556972  11.414832   4.228938   3.340185  33.611765   0.168003  12.149320  -0.037235   1.544684   0.479572  -2.130540   2.334180   0.961280 -12.127126   4.021477  -1.175713 -31.854968   0.146097 -11.046729   0.030371   1.909719  -1.773316   2.528579  -0.600021  -2.052358  -4.376965   8.356389   0.007249  -0.006418  -5.319275  -3.884842   1.002378  -0.243361  -0.000191  -0.000680   0.733196   0.920005   2.805126   4.706507  -0.002695   0.002386  -3.877192   2.763666   1.253794   2.437037  -0.002480   0.003415
